<svg xmlns="http://www.w3.org/2000/svg" version="1.1" xmlns:xlink="http://www.w3.org/1999/xlink" width="512" height="512" x="0" y="0" viewBox="0 0 512 512" style="enable-background:new 0 0 512 512" xml:space="preserve" class=""><g><path fill="#0085f7" d="M34.909 448.047h81.455V250.229l-53.338-93.138L0 162.956v250.182c0 19.287 15.622 34.909 34.909 34.909z" opacity="1" data-original="#0085f7"></path><path fill="#00a94b" d="M395.636 448.047h81.455c19.287 0 34.909-15.622 34.909-34.909V162.956l-62.935-5.865-53.428 93.138v197.818z" opacity="1" data-original="#00a94b" class=""></path><path fill="#ffbc00" d="m395.636 98.956-47.847 91.303 47.847 59.97L512 162.956v-46.545c0-43.142-49.251-67.782-83.782-41.891z" opacity="1" data-original="#ffbc00" class=""></path><path fill="#ff4131" fill-rule="evenodd" d="m116.364 250.229-45.593-96.31 45.593-54.963L256 203.683 395.636 98.956v151.273L256 354.956z" clip-rule="evenodd" opacity="1" data-original="#ff4131"></path><path fill="#e51c19" d="M0 116.411v46.545l116.364 87.273V98.956L83.782 74.52C49.251 48.629 0 73.269 0 116.411z" opacity="1" data-original="#e51c19"></path></g></svg>